<svg xmlns="http://www.w3.org/2000/svg" viewBox="0 0 920 720" role="img" aria-labelledby="title desc">
  <title id="title">Sunny cruise ship Lido deck overlooking the ocean</title>
  <desc id="desc">Original stylized illustration with ocean, sunrise, deck rail, lounge chairs and a striped umbrella.</desc>
  <defs>
    <linearGradient id="sky" x1="0" y1="0" x2="0" y2="1">
      <stop offset="0" stop-color="#8ed9ed"/>
      <stop offset=".55" stop-color="#dff7f5"/>
      <stop offset="1" stop-color="#ffe1b4"/>
    </linearGradient>
    <linearGradient id="sea" x1="0" y1="0" x2="0" y2="1">
      <stop offset="0" stop-color="#2b9eb4"/>
      <stop offset="1" stop-color="#07506f"/>
    </linearGradient>
    <linearGradient id="deck" x1="0" y1="0" x2="1" y2="1">
      <stop offset="0" stop-color="#f9e8ca"/>
      <stop offset="1" stop-color="#e8c797"/>
    </linearGradient>
    <filter id="shadow" x="-20%" y="-20%" width="140%" height="140%">
      <feDropShadow dx="0" dy="16" stdDeviation="18" flood-color="#063a52" flood-opacity=".18"/>
    </filter>
  </defs>
  <rect width="920" height="720" rx="42" fill="url(#sky)"/>
  <circle cx="705" cy="156" r="78" fill="#ffd36b" opacity=".96"/>
  <g fill="none" stroke="#ffffff" stroke-width="6" stroke-linecap="round" opacity=".78">
    <path d="M120 128q20-18 40 0q20-18 40 0"/>
    <path d="M245 88q15-13 30 0q15-13 30 0"/>
  </g>
  <path d="M0 310C112 281 205 335 323 309c128-28 218 31 347-1 102-25 168-9 250 13v399H0z" fill="url(#sea)"/>
  <g fill="none" stroke="#bceff3" stroke-width="5" opacity=".56">
    <path d="M0 365c100-24 196 23 296 0s196 23 296 0 196 23 328 0"/>
    <path d="M0 423c92-20 184 20 276 0s184 20 276 0 184 20 368 0"/>
  </g>
  <path d="M0 515L920 438v282H0z" fill="url(#deck)"/>
  <path d="M0 515L920 438" stroke="#fff6e8" stroke-width="16"/>
  <g stroke="#f7fbfc" stroke-width="12" fill="none">
    <path d="M72 484V316M848 446V284"/>
    <path d="M66 354L854 316M69 414L851 376"/>
  </g>
  <g opacity=".18" stroke="#8d6a44" stroke-width="3">
    <path d="M25 584l895-78M16 633l904-78M10 681l910-78"/>
  </g>
  <g filter="url(#shadow)">
    <path d="M171 478l105 5 63 130-164 14z" fill="#ffffff"/>
    <path d="M190 498l68 4 41 84-102 9z" fill="#23a7a5"/>
    <path d="M184 626l-8 52M324 612l18 50" stroke="#16394c" stroke-width="12" stroke-linecap="round"/>
  </g>
  <g filter="url(#shadow)">
    <path d="M486 462l113 2 79 118-167 17z" fill="#fff"/>
    <path d="M510 482l72 1 49 72-104 10z" fill="#ff6f59"/>
    <path d="M514 598l-2 57M661 580l22 52" stroke="#16394c" stroke-width="12" stroke-linecap="round"/>
  </g>
  <g filter="url(#shadow)">
    <path d="M639 184v306" stroke="#173d50" stroke-width="13"/>
    <path d="M441 205q198-116 396 0L639 269z" fill="#ffffff"/>
    <path d="M441 205q66-116 132 0l66 64zM705 205q66-116 132 0l-198 64z" fill="#ff6f59"/>
  </g>
  <g transform="translate(744 520)" filter="url(#shadow)">
    <path d="M0 0h78l-17 92H17z" fill="#ffffff"/>
    <path d="M9 13h59L55 69H21z" fill="#f7a83b"/>
    <path d="M36-62l8 73" stroke="#173d50" stroke-width="7" stroke-linecap="round"/>
    <path d="M39-61l44 23" stroke="#23a7a5" stroke-width="8" stroke-linecap="round"/>
    <circle cx="84" cy="-38" r="7" fill="#23a7a5"/>
  </g>
  <path d="M0 690c130-33 232 18 363-7 146-28 244 18 379-7 72-13 125-10 178 0v44H0z" fill="#f8faf7" opacity=".72"/>
</svg>